<?xml version="1.0" encoding="iso-8859-1"?>
<!-- Generator: Adobe Illustrator 16.0.0, SVG Export Plug-In . SVG Version: 6.00 Build 0)  -->
<!DOCTYPE svg PUBLIC "-//W3C//DTD SVG 1.1//EN" "http://www.w3.org/Graphics/SVG/1.1/DTD/svg11.dtd">
<svg version="1.1" id="Layer_1" xmlns="http://www.w3.org/2000/svg" xmlns:xlink="http://www.w3.org/1999/xlink" x="0px" y="0px"
	 width="570.957px" height="110.576px" viewBox="0 0 570.957 110.576" style="enable-background:new 0 0 570.957 110.576;"
	 xml:space="preserve" fill="rgb(255,255,255)">
<path d="M562.562,17.187l-118.834-0.101v6.674l101.453,0.104l-8.393,16.893l-93.061-0.109v6.229l75.68,0.113l-8.393,16.893
	l-67.287-0.12v6.674l49.906,0.122l-8.393,16.894l-41.514-0.128v6.229l24.133,0.13l-8.393,16.894l-15.74-0.137h-221.49v-0.063H127.25
	L0,110.282L8.394,93.39l118.84,0.102v-6.674L25.775,86.713l8.394-16.893l93.065,0.109v-6.229L51.55,63.588l8.394-16.893l67.29,0.119
	V40.14l-49.908-0.122l8.394-16.893l41.515,0.128v-6.229L103.1,16.893L111.494,0l15.739,0.137h245.726v0.063h70.754l127.244,0.095
	L562.562,17.187z M392.998,92.666c0.27,0.63,0.643,1.176,1.115,1.639c0.475,0.463,1.025,0.832,1.656,1.105
	c0.631,0.272,1.307,0.41,2.027,0.41c0.719,0,1.398-0.138,2.035-0.41c0.635-0.273,1.191-0.643,1.666-1.105s0.846-1.009,1.115-1.639
	c0.27-0.629,0.404-1.301,0.404-2.014c0-0.712-0.135-1.385-0.404-2.014c-0.27-0.63-0.643-1.176-1.115-1.64
	c-0.475-0.464-1.029-0.831-1.666-1.104c-0.637-0.272-1.314-0.409-2.035-0.409s-1.396,0.137-2.027,0.409
	c-0.629,0.273-1.182,0.642-1.656,1.104s-0.846,1.01-1.115,1.64c-0.271,0.629-0.406,1.302-0.406,2.014
	C392.591,91.365,392.726,92.037,392.998,92.666z M402.183,38.006h-11.68l1.525,4.37l-2.086,6.034h12.801l-2.086-6.034
	L402.183,38.006z M388.865,51.53l-3.418,9.883h8.377l2.52-7.802l2.555,7.802h8.344l-3.418-9.883H388.865z M376.142,95.57h1.496
	V81.796h-1.496V95.57z M363.847,92.666c0.271,0.63,0.645,1.176,1.117,1.639c0.475,0.463,1.027,0.832,1.656,1.105
	c0.631,0.272,1.307,0.41,2.027,0.41c0.719,0,1.396-0.138,2.033-0.41c0.637-0.273,1.191-0.643,1.666-1.105
	c0.477-0.463,0.848-1.009,1.117-1.639c0.27-0.629,0.406-1.301,0.406-2.014c0-0.712-0.137-1.385-0.406-2.014
	c-0.27-0.63-0.643-1.176-1.117-1.64c-0.473-0.464-1.027-0.831-1.666-1.104c-0.637-0.272-1.313-0.409-2.033-0.409
	c-0.723,0-1.396,0.137-2.027,0.409c-0.629,0.273-1.184,0.642-1.656,1.104s-0.846,1.01-1.117,1.64
	c-0.27,0.629-0.404,1.302-0.404,2.014C363.443,91.365,363.578,92.037,363.847,92.666z M335.503,92.648
	c0.264,0.629,0.641,1.176,1.127,1.639s1.07,0.832,1.75,1.104c0.68,0.273,1.434,0.41,2.264,0.41c0.217,0,0.49-0.018,0.82-0.054
	s0.684-0.11,1.055-0.223c0.373-0.113,0.758-0.271,1.154-0.473s0.77-0.463,1.119-0.784v-1.781c-0.361,0.416-0.713,0.751-1.055,1.007
	c-0.344,0.256-0.688,0.454-1.029,0.597c-0.342,0.144-0.686,0.238-1.027,0.285c-0.344,0.048-0.689,0.071-1.037,0.071
	c-0.553,0-1.066-0.089-1.543-0.268c-0.475-0.178-0.887-0.419-1.234-0.722c-0.35-0.303-0.631-0.662-0.848-1.078
	s-0.35-0.867-0.396-1.354h8.928v-0.393c0-0.713-0.135-1.381-0.406-2.005s-0.643-1.17-1.117-1.639
	c-0.477-0.469-1.029-0.837-1.66-1.105c-0.631-0.267-1.309-0.4-2.029-0.4c-0.723,0-1.402,0.134-2.039,0.4
	c-0.637,0.269-1.189,0.637-1.66,1.105c-0.469,0.469-0.842,1.016-1.117,1.639c-0.277,0.624-0.414,1.292-0.414,2.005
	S335.24,92.019,335.503,92.648z M303.349,38.006V48.41h8.049v-2.151h9.455v-7.104h-9.455v-1.147L303.349,38.006L303.349,38.006z
	 M311.396,34.885v-9.883h-8.047v9.883H311.396z M311.396,61.414V51.53h-8.047v9.883L311.396,61.414L311.396,61.414z M303.349,64.535
	v7.832h8.049v-7.832H303.349z M308.828,92.679c0.275,0.63,0.648,1.179,1.117,1.643s1.021,0.833,1.66,1.105
	c0.637,0.273,1.316,0.411,2.037,0.411c0.361,0,0.723-0.044,1.082-0.134c0.361-0.089,0.705-0.214,1.029-0.374
	c0.324-0.161,0.625-0.351,0.902-0.57c0.275-0.22,0.51-0.466,0.703-0.74v1.568h1.479v-9.8h-1.479v1.55
	c-0.168-0.25-0.391-0.487-0.666-0.713c-0.277-0.226-0.58-0.419-0.912-0.579c-0.33-0.161-0.68-0.291-1.045-0.392
	c-0.367-0.102-0.73-0.151-1.092-0.151c-0.721,0-1.4,0.134-2.037,0.402c-0.639,0.268-1.191,0.637-1.66,1.105
	c-0.471,0.471-0.842,1.019-1.119,1.643c-0.277,0.625-0.414,1.294-0.414,2.008S308.55,92.048,308.828,92.679z M284.476,92.679
	c0.277,0.63,0.649,1.179,1.119,1.643c0.469,0.464,1.021,0.833,1.658,1.105c0.638,0.273,1.316,0.411,2.039,0.411
	c0.36,0,0.721-0.044,1.082-0.134c0.36-0.089,0.703-0.214,1.027-0.374c0.325-0.161,0.625-0.351,0.902-0.57
	c0.275-0.22,0.511-0.466,0.703-0.74v1.568h1.479v-9.8h-1.479v1.55c-0.168-0.25-0.391-0.487-0.666-0.713
	c-0.277-0.226-0.581-0.419-0.911-0.579c-0.331-0.161-0.681-0.291-1.046-0.392c-0.367-0.102-0.73-0.151-1.092-0.151
	c-0.721,0-1.4,0.134-2.037,0.402c-0.639,0.268-1.19,0.637-1.659,1.105c-0.469,0.471-0.842,1.019-1.119,1.643
	c-0.277,0.625-0.415,1.294-0.415,2.008S284.199,92.048,284.476,92.679z M285.266,73.028c3.871,0,7.01-1.128,9.416-3.389
	c1.511-1.419,2.547-3.121,3.108-5.104h-9.845c-0.756,0.427-1.62,0.644-2.598,0.644c-1.022,0-1.932-0.218-2.733-0.644h-9.885
	c0.608,1.854,1.591,3.46,2.954,4.815C278.145,71.803,281.338,73.028,285.266,73.028z M294.123,48.41
	c-0.16-0.249-0.313-0.498-0.479-0.747l-6.604-9.657h-9.979l7.076,10.404H294.123z M279.913,95.57h1.497v-9.818h-1.497V95.57z
	 M279.868,83.507c0.223,0.214,0.49,0.321,0.803,0.321s0.58-0.107,0.803-0.321c0.222-0.214,0.333-0.475,0.333-0.784
	c0-0.309-0.111-0.572-0.333-0.793c-0.223-0.22-0.49-0.33-0.803-0.33s-0.58,0.11-0.803,0.33c-0.223,0.221-0.333,0.484-0.333,0.793
	C279.534,83.032,279.645,83.293,279.868,83.507z M264.509,95.588h1.497v-5.797c0-0.403,0.069-0.782,0.208-1.138
	c0.138-0.355,0.333-0.667,0.586-0.935c0.253-0.267,0.553-0.477,0.902-0.631c0.349-0.154,0.733-0.23,1.155-0.23
	c0.156,0,0.289,0.003,0.396,0.009c0.108,0.006,0.265,0.021,0.469,0.044v-1.336c-0.145-0.024-0.289-0.042-0.433-0.055
	c-0.144-0.012-0.289-0.018-0.433-0.018c-0.554,0-1.073,0.117-1.561,0.353c-0.487,0.234-0.917,0.563-1.29,0.983v-1.016h-1.497
	L264.509,95.588L264.509,95.588z M252.208,92.648c0.265,0.629,0.641,1.176,1.127,1.639s1.07,0.832,1.75,1.104
	c0.68,0.273,1.434,0.41,2.264,0.41c0.216,0,0.49-0.018,0.82-0.054s0.683-0.11,1.055-0.223c0.373-0.113,0.758-0.271,1.155-0.473
	c0.396-0.202,0.769-0.463,1.118-0.784v-1.781c-0.361,0.416-0.712,0.751-1.055,1.007c-0.343,0.256-0.686,0.454-1.028,0.597
	c-0.342,0.144-0.686,0.238-1.028,0.285c-0.343,0.048-0.689,0.071-1.037,0.071c-0.554,0-1.068-0.089-1.542-0.268
	c-0.475-0.178-0.887-0.419-1.235-0.722c-0.349-0.303-0.631-0.662-0.848-1.078c-0.216-0.416-0.349-0.867-0.396-1.354h8.928v-0.393
	c0-0.713-0.135-1.381-0.406-2.005s-0.643-1.17-1.118-1.639s-1.028-0.837-1.66-1.105c-0.631-0.267-1.308-0.4-2.029-0.4
	s-1.401,0.134-2.038,0.4c-0.637,0.269-1.19,0.637-1.659,1.105c-0.469,0.469-0.842,1.016-1.119,1.639
	c-0.276,0.624-0.415,1.292-0.415,2.005S251.943,92.019,252.208,92.648z M242.684,95.57h1.605v-5.042h2.002V90.51
	c0.841,0,1.563-0.108,2.164-0.33c0.602-0.22,1.094-0.514,1.479-0.882c0.385-0.368,0.664-0.793,0.838-1.273
	c0.174-0.481,0.262-0.983,0.262-1.507c0-0.521-0.09-1.026-0.271-1.515c-0.181-0.487-0.464-0.915-0.85-1.283
	c-0.386-0.368-0.88-0.662-1.482-0.882c-0.603-0.22-1.319-0.33-2.151-0.33h-3.598V95.57H242.684z M232.331,97.477l1.245-3.956h-1.731
	l-0.649,3.956H232.331z M222.897,94.965c0.229,0.154,0.5,0.297,0.814,0.427c0.265,0.107,0.587,0.205,0.967,0.294
	c0.38,0.09,0.805,0.134,1.275,0.134c0.603,0,1.131-0.086,1.583-0.259c0.452-0.172,0.829-0.394,1.13-0.667
	c0.302-0.272,0.528-0.571,0.679-0.897c0.15-0.326,0.226-0.644,0.226-0.951c0-0.51-0.105-0.946-0.316-1.307
	c-0.211-0.361-0.472-0.67-0.785-0.925c-0.313-0.256-0.655-0.472-1.028-0.649s-0.728-0.337-1.064-0.48
	c-0.205-0.083-0.415-0.178-0.631-0.284c-0.216-0.106-0.415-0.223-0.595-0.347c-0.18-0.125-0.331-0.264-0.451-0.418
	c-0.121-0.153-0.181-0.326-0.181-0.516c0-0.119,0.03-0.255,0.09-0.409s0.156-0.294,0.288-0.418c0.132-0.125,0.309-0.231,0.531-0.32
	c0.222-0.089,0.489-0.133,0.801-0.133c0.348,0,0.645,0.032,0.891,0.097s0.461,0.152,0.648,0.264c0.186,0.11,0.351,0.236,0.495,0.377
	c0.144,0.14,0.288,0.28,0.432,0.421v-1.835c-0.207-0.119-0.438-0.231-0.693-0.338c-0.216-0.083-0.475-0.161-0.776-0.232
	c-0.3-0.071-0.637-0.106-1.01-0.106h-0.018c-0.469,0-0.896,0.07-1.281,0.214c-0.385,0.142-0.719,0.332-1.001,0.568
	c-0.283,0.237-0.502,0.514-0.659,0.827c-0.157,0.314-0.234,0.649-0.234,1.004c0,0.569,0.223,1.079,0.667,1.53
	c0.445,0.45,1.154,0.896,2.128,1.333c0.252,0.107,0.511,0.216,0.776,0.329c0.264,0.112,0.505,0.246,0.721,0.4
	c0.216,0.153,0.397,0.338,0.541,0.551c0.145,0.214,0.217,0.468,0.217,0.765c0,0.154-0.045,0.317-0.135,0.489
	s-0.226,0.329-0.406,0.471c-0.18,0.144-0.403,0.261-0.667,0.355c-0.265,0.095-0.571,0.143-0.92,0.143
	c-0.577,0-1.059-0.073-1.443-0.22c-0.385-0.146-0.697-0.309-0.938-0.484c-0.289-0.211-0.511-0.452-0.667-0.722L222.897,94.965
	L222.897,94.965z M225.62,72.945c3.816,0,6.94-1.252,9.375-3.76c1.308-1.347,2.261-2.897,2.866-4.65h-9.587
	c-0.754,0.427-1.636,0.644-2.653,0.644s-1.906-0.217-2.674-0.644h-9.566c0.604,1.753,1.558,3.305,2.866,4.65
	C218.679,71.693,221.804,72.945,225.62,72.945z M212.596,51.53v8.029c0,0.638,0.036,1.254,0.1,1.854h8.091
	c-0.093-0.487-0.144-1.019-0.144-1.605V51.53H212.596z M220.643,48.41V38.006h-8.047V48.41H220.643z M194.398,95.57h1.497v-9.818
	h-1.497V95.57z M194.353,83.507c0.223,0.214,0.49,0.321,0.803,0.321s0.58-0.107,0.803-0.321c0.222-0.214,0.333-0.475,0.333-0.784
	c0-0.309-0.111-0.572-0.333-0.793c-0.223-0.22-0.49-0.33-0.803-0.33s-0.58,0.11-0.803,0.33c-0.223,0.221-0.333,0.484-0.333,0.793
	C194.02,83.032,194.13,83.293,194.353,83.507z M186.66,87.16h1.497v5.522c0,0.548,0.06,1.034,0.181,1.461
	c0.12,0.429,0.325,0.781,0.613,1.061c0.289,0.279,0.676,0.466,1.164,0.562c0.487,0.096,1.097,0.083,1.831-0.035v-1.337
	c-0.437,0.144-0.803,0.19-1.1,0.144c-0.297-0.047-0.533-0.158-0.709-0.33c-0.176-0.172-0.3-0.396-0.373-0.668
	c-0.073-0.273-0.109-0.558-0.109-0.855V87.16h2.291v-1.354h-2.291v-2.477h-1.497v2.477h-1.497L186.66,87.16L186.66,87.16z
	 M180.726,95.588h1.497v-5.797c0-0.403,0.069-0.782,0.208-1.138c0.138-0.355,0.333-0.667,0.586-0.935
	c0.253-0.267,0.553-0.477,0.902-0.631c0.348-0.154,0.733-0.23,1.154-0.23c0.156,0,0.289,0.003,0.396,0.009
	c0.108,0.006,0.265,0.021,0.469,0.044v-1.336c-0.145-0.024-0.289-0.042-0.433-0.055c-0.144-0.012-0.289-0.018-0.433-0.018
	c-0.553,0-1.073,0.117-1.561,0.353c-0.487,0.234-0.917,0.563-1.29,0.983v-1.016h-1.497v9.766H180.726z M154.951,89.049
	c0,0.926,0.198,1.8,0.593,2.619c0.395,0.82,0.921,1.536,1.578,2.147c0.657,0.611,1.416,1.096,2.275,1.451
	c0.859,0.356,1.765,0.535,2.715,0.535c0.805,0,1.608-0.128,2.408-0.383s1.524-0.615,2.174-1.078v-1.907
	c-0.241,0.298-0.529,0.564-0.866,0.803c-0.337,0.237-0.71,0.441-1.119,0.614c-0.409,0.174-0.836,0.304-1.281,0.393
	c-0.445,0.089-0.884,0.133-1.316,0.133c-0.77,0-1.491-0.139-2.165-0.418c-0.674-0.279-1.263-0.66-1.768-1.141
	c-0.505-0.481-0.902-1.045-1.19-1.693c-0.289-0.647-0.433-1.339-0.433-2.076c0-0.735,0.144-1.432,0.433-2.085
	c0.289-0.653,0.682-1.22,1.181-1.702c0.499-0.48,1.085-0.86,1.759-1.14c0.673-0.279,1.401-0.419,2.183-0.419
	c0.445,0,0.887,0.047,1.326,0.143c0.439,0.097,0.859,0.227,1.263,0.393c0.403,0.167,0.775,0.371,1.118,0.614
	c0.343,0.244,0.634,0.515,0.875,0.812v-1.924c-0.649-0.451-1.374-0.809-2.174-1.069s-1.603-0.392-2.408-0.392
	c-0.95,0-1.855,0.178-2.715,0.533c-0.86,0.356-1.618,0.842-2.275,1.453c-0.657,0.612-1.183,1.327-1.578,2.147
	S154.951,88.11,154.951,89.049z M163.816,14.119h-8.13v7.762h8.13V14.119z M163.816,25.002h-8.13v9.883h8.13V25.002z
	 M163.816,38.006h-8.13V48.41h8.13V38.006z M163.816,51.53h-8.13v9.883h8.13V51.53z M176.26,64.601h-12.444v-0.065h-8.13v7.832
	h20.574V64.601z M178.048,88.639c-0.27-0.63-0.643-1.176-1.117-1.64c-0.474-0.463-1.029-0.831-1.666-1.104
	c-0.637-0.272-1.314-0.409-2.035-0.409s-1.396,0.137-2.026,0.409c-0.63,0.273-1.183,0.642-1.656,1.104
	c-0.474,0.463-0.847,1.01-1.117,1.64c-0.27,0.629-0.405,1.302-0.405,2.014c0,0.713,0.135,1.384,0.405,2.014s0.643,1.176,1.117,1.639
	c0.474,0.463,1.026,0.832,1.656,1.105c0.63,0.272,1.306,0.41,2.026,0.41s1.398-0.138,2.035-0.41
	c0.636-0.273,1.192-0.643,1.666-1.105c0.474-0.463,0.847-1.009,1.117-1.639c0.27-0.629,0.405-1.301,0.405-2.014
	C178.454,89.94,178.318,89.269,178.048,88.639z M187.46,14.119h-8.047v7.762h8.047V14.119z M187.46,25.002h-8.047v9.883h8.047
	V25.002z M187.46,38.006h-8.047V48.41h8.047V38.006z M187.46,59.891v-8.36h-8.047v8.029c0,0.638,0.036,1.254,0.1,1.854h8.116
	C187.52,60.915,187.46,60.408,187.46,59.891z M192.437,65.179c-0.941,0-1.825-0.207-2.654-0.62
	c-0.015-0.007-0.029-0.017-0.044-0.023h-9.542c0.605,1.753,1.558,3.305,2.866,4.65c2.433,2.508,5.558,3.76,9.374,3.76
	c3.761,0,6.857-1.252,9.292-3.76c1.308-1.347,2.261-2.897,2.866-4.65h-9.559C194.278,64.961,193.414,65.179,192.437,65.179z
	 M205.379,14.119h-8.047v7.762h8.047V14.119z M205.379,25.002h-8.047v9.883h8.047V25.002z M205.379,38.006h-8.047V48.41h8.047
	V38.006z M205.379,51.53h-8.047v8.36c0,0.555-0.049,1.059-0.136,1.522h8.083c0.065-0.6,0.101-1.216,0.101-1.854L205.379,51.53
	L205.379,51.53z M208.125,89.779c0-0.665-0.114-1.263-0.343-1.791c-0.229-0.529-0.538-0.978-0.929-1.347
	c-0.391-0.367-0.851-0.649-1.38-0.846c-0.529-0.196-1.088-0.294-1.678-0.294c-0.553,0-1.073,0.117-1.56,0.352
	c-0.487,0.235-0.917,0.563-1.29,0.984v-1.015h-1.497v9.765h1.497v-5.797c0-0.403,0.069-0.782,0.208-1.138
	c0.138-0.355,0.333-0.667,0.586-0.935c0.253-0.267,0.553-0.477,0.902-0.631s0.733-0.23,1.154-0.23c0.409,0,0.788,0.063,1.137,0.187
	c0.349,0.125,0.649,0.312,0.902,0.56c0.253,0.249,0.448,0.558,0.586,0.926c0.138,0.366,0.208,0.789,0.208,1.262v5.779h1.497V89.779z
	 M210.614,88.653c-0.277,0.625-0.415,1.294-0.415,2.008s0.138,1.386,0.415,2.017c0.276,0.63,0.649,1.179,1.118,1.643
	c0.469,0.464,1.022,0.833,1.66,1.105c0.637,0.273,1.316,0.411,2.038,0.411c0.361,0,0.721-0.044,1.082-0.134
	c0.361-0.089,0.704-0.214,1.028-0.374c0.325-0.161,0.625-0.352,0.902-0.57c0.276-0.22,0.511-0.466,0.704-0.74v1.568h1.479v-9.8
	h-1.479v1.55c-0.168-0.25-0.391-0.487-0.667-0.713s-0.58-0.419-0.911-0.579c-0.331-0.161-0.68-0.291-1.046-0.392
	c-0.367-0.102-0.73-0.151-1.091-0.151c-0.721,0-1.401,0.134-2.038,0.402c-0.638,0.268-1.19,0.637-1.66,1.105
	C211.263,87.481,210.89,88.029,210.614,88.653z M212.596,27.008v7.877h8.047V26.76c0-0.646,0.06-1.229,0.172-1.758h-8.106
	C212.635,25.649,212.596,26.316,212.596,27.008z M234.994,17.3c-2.435-2.505-5.558-3.759-9.375-3.759
	c-3.816,0-6.941,1.254-9.374,3.759c-1.285,1.323-2.227,2.853-2.833,4.581h9.7c0.729-0.38,1.563-0.574,2.507-0.574
	c0.907,0,1.717,0.194,2.434,0.574h9.773C237.22,20.151,236.278,18.623,234.994,17.3z M238.644,27.008
	c0-0.69-0.039-1.358-0.113-2.006h-8.189c0.112,0.528,0.172,1.112,0.172,1.758v2.727h8.13V27.008z M238.644,56.751h-8.13v3.057
	c0,0.587-0.05,1.118-0.14,1.605h8.169c0.064-0.6,0.1-1.216,0.1-1.854L238.644,56.751L238.644,56.751z M240.469,72.367h8.129
	l1.368-7.832h-8.004L240.469,72.367z M245.034,48.41h7.558l1.713-10.404h-7.289L245.034,48.41z M260.129,14.037h-8.544l-1.495,7.844
	h11.512L260.129,14.037z M262.188,25.002h-12.693l-1.883,9.883h7.208l1.08-6.555l1.058,6.555h7.086L262.188,25.002z M264.629,38.006
	h-7.168l1.679,10.404h7.442L264.629,38.006z M267.168,51.53h-7.524l0.402,2.495h-8.378l0.411-2.495h-7.639l-1.883,9.883h7.955
	l0.078-0.448h10.453l0.075,0.448h7.906L267.168,51.53z M269.61,64.535h-7.97l1.311,7.832h8.13L269.61,64.535z M270.984,87.095
	c-0.156,0.314-0.234,0.649-0.234,1.004c0,0.569,0.222,1.079,0.667,1.53c0.445,0.45,1.154,0.896,2.128,1.333
	c0.252,0.107,0.511,0.216,0.775,0.329c0.265,0.112,0.505,0.246,0.722,0.4c0.217,0.153,0.397,0.338,0.541,0.551
	c0.145,0.214,0.216,0.468,0.216,0.765c0,0.154-0.045,0.317-0.135,0.489c-0.09,0.172-0.225,0.329-0.406,0.471
	c-0.18,0.144-0.403,0.261-0.667,0.355c-0.265,0.095-0.571,0.143-0.919,0.143c-0.578,0-1.059-0.073-1.443-0.22
	c-0.385-0.146-0.697-0.309-0.938-0.484c-0.289-0.211-0.511-0.452-0.667-0.722v1.925c0.229,0.154,0.5,0.297,0.814,0.427
	c0.266,0.107,0.588,0.205,0.968,0.294c0.38,0.09,0.805,0.134,1.275,0.134c0.603,0,1.13-0.086,1.583-0.259
	c0.453-0.172,0.829-0.394,1.13-0.667c0.302-0.272,0.528-0.571,0.679-0.897c0.15-0.326,0.226-0.644,0.226-0.951
	c0-0.51-0.105-0.946-0.316-1.307c-0.211-0.361-0.472-0.67-0.785-0.926c-0.313-0.255-0.655-0.471-1.028-0.648
	s-0.728-0.337-1.064-0.48c-0.205-0.083-0.415-0.178-0.631-0.284c-0.216-0.106-0.415-0.223-0.595-0.347
	c-0.18-0.125-0.331-0.264-0.451-0.418c-0.121-0.153-0.181-0.326-0.181-0.516c0-0.119,0.03-0.255,0.09-0.409s0.156-0.294,0.288-0.418
	c0.132-0.125,0.309-0.231,0.531-0.32c0.222-0.089,0.489-0.133,0.801-0.133c0.348,0,0.645,0.032,0.891,0.097
	c0.246,0.064,0.461,0.152,0.647,0.264c0.186,0.11,0.351,0.236,0.495,0.377c0.144,0.14,0.288,0.28,0.432,0.421v-1.835
	c-0.207-0.119-0.438-0.231-0.693-0.338c-0.217-0.083-0.475-0.161-0.776-0.232c-0.301-0.071-0.637-0.106-1.01-0.106h-0.018
	c-0.469,0-0.896,0.07-1.281,0.214c-0.385,0.142-0.719,0.332-1.001,0.568C271.36,86.505,271.141,86.781,270.984,87.095z
	 M272.087,61.414h8.148c-0.128-0.555-0.195-1.17-0.195-1.854h-8.047C271.993,60.199,272.026,60.815,272.087,61.414z M272.49,25.355
	c0,2.479,0.401,4.668,1.203,6.567c0.412,0.977,0.896,1.963,1.446,2.961h9.767l-1.714-2.507c-1.715-2.423-2.572-4.737-2.572-6.94
	c0-0.148,0.007-0.294,0.018-0.436h-8.14C272.495,25.12,272.49,25.236,272.49,25.355z M294.225,17.094
	c-2.378-2.368-5.392-3.553-9.042-3.553c-3.706,0-6.748,1.074-9.125,3.222c-1.551,1.401-2.593,3.108-3.132,5.118h9.531
	c0.75-0.49,1.629-0.739,2.644-0.739c0.977,0,1.846,0.248,2.611,0.739h9.408C296.535,20.03,295.57,18.434,294.225,17.094z
	 M297.722,25.002h-7.959c0.096,0.486,0.148,1.014,0.148,1.593h7.881C297.792,26.048,297.768,25.518,297.722,25.002z M296.962,53.653
	c-0.313-0.709-0.662-1.417-1.029-2.123h-9.672l1.078,1.586c1.382,2.038,2.211,3.566,2.49,4.585c0.275,1.02,0.414,1.94,0.414,2.768
	c0,0.331-0.027,0.646-0.078,0.944h8.111c0.008-0.229,0.014-0.461,0.014-0.696C298.291,58.019,297.847,55.665,296.962,53.653z
	 M302.009,85.503c-0.553,0-1.074,0.117-1.561,0.353c-0.488,0.234-0.918,0.563-1.291,0.983v-1.015h-1.496v9.765h1.496v-5.797
	c0-0.403,0.068-0.782,0.209-1.138c0.137-0.355,0.332-0.667,0.586-0.935c0.252-0.267,0.553-0.477,0.9-0.631
	c0.35-0.154,0.734-0.23,1.156-0.23c0.408,0,0.787,0.063,1.135,0.187c0.35,0.125,0.65,0.312,0.902,0.561
	c0.254,0.248,0.449,0.557,0.586,0.925c0.139,0.367,0.209,0.789,0.209,1.262v5.779h1.496V89.78c0-0.665-0.113-1.263-0.342-1.791
	c-0.229-0.529-0.539-0.978-0.928-1.347c-0.393-0.367-0.852-0.649-1.381-0.846S302.597,85.503,302.009,85.503z M324.337,14.119
	h-20.988v7.762h20.988V14.119z M327.468,91.739c-0.211-0.361-0.473-0.67-0.785-0.925c-0.313-0.256-0.654-0.472-1.027-0.649
	s-0.729-0.337-1.064-0.48c-0.205-0.083-0.416-0.178-0.631-0.284c-0.217-0.106-0.416-0.223-0.596-0.347
	c-0.18-0.125-0.33-0.264-0.451-0.418c-0.121-0.153-0.18-0.326-0.18-0.516c0-0.119,0.029-0.255,0.09-0.409
	c0.059-0.154,0.154-0.294,0.287-0.418c0.133-0.125,0.309-0.231,0.531-0.32s0.488-0.133,0.801-0.133c0.348,0,0.645,0.032,0.891,0.097
	s0.461,0.152,0.646,0.264c0.188,0.11,0.352,0.236,0.496,0.377c0.145,0.14,0.287,0.28,0.432,0.421v-1.835
	c-0.207-0.119-0.438-0.231-0.693-0.338c-0.215-0.083-0.475-0.161-0.775-0.232c-0.301-0.07-0.637-0.106-1.01-0.106h-0.018
	c-0.469,0-0.896,0.07-1.281,0.214c-0.385,0.142-0.719,0.332-1.002,0.568c-0.283,0.237-0.502,0.514-0.658,0.827
	c-0.158,0.314-0.234,0.649-0.234,1.004c0,0.569,0.223,1.079,0.668,1.53c0.443,0.45,1.152,0.896,2.127,1.333
	c0.252,0.107,0.512,0.216,0.775,0.329c0.266,0.112,0.504,0.246,0.723,0.4c0.217,0.153,0.396,0.338,0.541,0.551
	c0.145,0.214,0.217,0.468,0.217,0.765c0,0.154-0.045,0.317-0.137,0.489c-0.09,0.172-0.225,0.329-0.404,0.471
	c-0.182,0.144-0.404,0.261-0.668,0.355c-0.266,0.095-0.57,0.143-0.92,0.143c-0.576,0-1.059-0.073-1.443-0.22
	s-0.697-0.308-0.938-0.484c-0.289-0.211-0.512-0.452-0.666-0.722v1.925c0.229,0.154,0.5,0.297,0.813,0.427
	c0.266,0.107,0.588,0.205,0.967,0.294c0.381,0.09,0.807,0.134,1.275,0.134c0.604,0,1.131-0.086,1.584-0.259
	c0.451-0.172,0.828-0.394,1.129-0.667c0.303-0.272,0.529-0.571,0.68-0.897s0.227-0.644,0.227-0.951
	C327.785,92.536,327.679,92.1,327.468,91.739z M338.357,14.119h-8.131v7.762h8.131V14.119z M338.357,25.002h-8.131v9.883h8.131
	V25.002z M338.357,38.006h-8.131V48.41h8.131V38.006z M338.357,51.53h-8.131v9.883h8.131V51.53z M350.8,64.601h-12.443v-0.065
	h-8.131v7.832H350.8V64.601z M352.531,83.899h4.148V95.57h1.605V83.899h4.166v-1.391h-9.92V83.899z M356.275,38.006V48.41h8.047
	v-2.151h10.287v-7.104h-10.287v-1.147L356.275,38.006L356.275,38.006z M364.322,34.885v-9.883h-8.047v9.883H364.322z M364.322,51.53
	h-8.047v9.883h8.047V51.53z M378.093,14.119h-21.818v7.762h21.818V14.119z M378.093,64.601h-13.771v-0.065h-8.047v7.832h21.818
	V64.601z M380.308,88.63c-0.277,0.624-0.416,1.292-0.416,2.005s0.139,1.384,0.416,2.015c0.275,0.629,0.648,1.176,1.117,1.639
	s1.023,0.832,1.66,1.104c0.637,0.273,1.318,0.41,2.039,0.41c0.361,0,0.721-0.045,1.082-0.134s0.703-0.214,1.029-0.374
	c0.324-0.161,0.625-0.351,0.9-0.57c0.277-0.219,0.512-0.466,0.705-0.738v1.567h1.479V81.779h-1.479v5.523
	c-0.168-0.25-0.391-0.486-0.668-0.713c-0.275-0.226-0.58-0.419-0.91-0.579c-0.332-0.161-0.68-0.288-1.047-0.383
	s-0.729-0.143-1.09-0.143c-0.721,0-1.402,0.134-2.039,0.4c-0.637,0.269-1.189,0.637-1.66,1.105
	C380.958,87.46,380.583,88.006,380.308,88.63z M390.287,72.367l2.529-7.832h-8.449l-2.707,7.832H390.287z M390.869,14.119h-8.711
	l2.711,7.762h8.482L390.869,14.119z M396.343,31.222l-1.992-6.22h-8.393l3.453,9.883h13.861l3.453-9.883h-8.363L396.343,31.222z
	 M401.902,14.119l-2.523,7.762h8.439l2.711-7.762H401.902z M408.32,64.535h-8.4l2.563,7.832h8.545L408.32,64.535z M410.746,91.739
	c-0.209-0.361-0.471-0.67-0.785-0.925c-0.313-0.256-0.654-0.472-1.027-0.649s-0.729-0.337-1.064-0.48
	c-0.205-0.083-0.414-0.178-0.631-0.284s-0.414-0.223-0.596-0.347c-0.18-0.125-0.33-0.264-0.449-0.418
	c-0.121-0.153-0.182-0.326-0.182-0.516c0-0.119,0.029-0.255,0.09-0.409s0.156-0.294,0.287-0.418c0.133-0.125,0.311-0.231,0.531-0.32
	c0.223-0.089,0.49-0.133,0.801-0.133c0.35,0,0.646,0.032,0.893,0.097s0.461,0.152,0.646,0.264c0.186,0.11,0.352,0.236,0.494,0.377
	c0.145,0.14,0.289,0.28,0.432,0.421v-1.835c-0.207-0.119-0.438-0.231-0.691-0.338c-0.217-0.083-0.477-0.161-0.777-0.232
	c-0.301-0.07-0.637-0.106-1.01-0.106h-0.018c-0.469,0-0.896,0.07-1.281,0.214c-0.385,0.142-0.719,0.332-1,0.568
	c-0.283,0.237-0.502,0.514-0.66,0.827c-0.156,0.314-0.234,0.649-0.234,1.004c0,0.569,0.225,1.079,0.668,1.53
	c0.445,0.45,1.154,0.896,2.127,1.333c0.252,0.107,0.512,0.216,0.775,0.329c0.266,0.112,0.506,0.246,0.723,0.4
	c0.217,0.153,0.396,0.338,0.541,0.551c0.145,0.214,0.217,0.468,0.217,0.765c0,0.154-0.045,0.317-0.137,0.489
	c-0.09,0.172-0.225,0.329-0.406,0.471c-0.18,0.144-0.402,0.261-0.666,0.355c-0.266,0.095-0.572,0.143-0.92,0.143
	c-0.578,0-1.059-0.073-1.443-0.22s-0.697-0.308-0.938-0.484c-0.289-0.211-0.512-0.452-0.668-0.722v1.925
	c0.23,0.154,0.5,0.297,0.814,0.427c0.266,0.107,0.588,0.205,0.969,0.294c0.379,0.09,0.805,0.134,1.275,0.134
	c0.602,0,1.129-0.086,1.582-0.259c0.453-0.172,0.828-0.394,1.131-0.667c0.301-0.272,0.527-0.571,0.678-0.897
	s0.227-0.644,0.227-0.951C411.062,92.536,410.957,92.1,410.746,91.739z M385.125,86.839c0.529,0,1.018,0.098,1.469,0.294
	s0.842,0.466,1.172,0.812c0.332,0.345,0.59,0.749,0.775,1.212s0.281,0.956,0.281,1.479c0,0.535-0.094,1.033-0.281,1.497
	s-0.445,0.867-0.775,1.212c-0.33,0.346-0.721,0.615-1.172,0.812c-0.451,0.195-0.939,0.294-1.469,0.294
	c-0.541,0-1.037-0.099-1.488-0.294c-0.451-0.196-0.846-0.466-1.182-0.812c-0.338-0.345-0.598-0.749-0.785-1.212
	s-0.281-0.962-0.281-1.497c0-0.522,0.094-1.016,0.281-1.479s0.447-0.867,0.785-1.212c0.336-0.345,0.729-0.615,1.182-0.812
	C384.087,86.937,384.583,86.839,385.125,86.839z M215.43,86.857c0.529,0,1.019,0.101,1.47,0.303
	c0.451,0.202,0.841,0.475,1.172,0.819c0.331,0.345,0.589,0.748,0.776,1.212c0.186,0.463,0.279,0.957,0.279,1.479
	c0,0.523-0.093,1.016-0.279,1.479c-0.187,0.463-0.445,0.866-0.776,1.211c-0.331,0.345-0.722,0.617-1.172,0.819
	c-0.451,0.202-0.941,0.304-1.47,0.304c-0.541,0-1.037-0.102-1.488-0.304c-0.451-0.202-0.845-0.475-1.182-0.819
	c-0.337-0.345-0.598-0.749-0.785-1.211c-0.187-0.464-0.28-0.956-0.28-1.479c0-0.521,0.093-1.016,0.28-1.479
	c0.187-0.464,0.448-0.867,0.785-1.212c0.336-0.345,0.73-0.617,1.182-0.819C214.393,86.958,214.889,86.857,215.43,86.857z
	 M175.901,93.343c-0.331,0.346-0.721,0.618-1.172,0.819c-0.451,0.202-0.947,0.303-1.488,0.303c-0.529,0-1.022-0.101-1.479-0.303
	c-0.458-0.202-0.851-0.476-1.182-0.819c-0.331-0.345-0.589-0.749-0.776-1.212s-0.279-0.956-0.279-1.479s0.093-1.017,0.279-1.479
	c0.187-0.463,0.445-0.867,0.776-1.211c0.331-0.345,0.724-0.618,1.182-0.82c0.457-0.201,0.95-0.303,1.479-0.303
	c0.541,0,1.037,0.102,1.488,0.303c0.451,0.202,0.842,0.476,1.172,0.82c0.331,0.345,0.589,0.749,0.776,1.211
	c0.186,0.463,0.28,0.957,0.28,1.479s-0.094,1.016-0.28,1.479C176.49,92.595,176.232,92.999,175.901,93.343z M247.794,84.149
	c0.408,0.167,0.731,0.379,0.971,0.635c0.24,0.256,0.41,0.54,0.512,0.849c0.102,0.312,0.153,0.608,0.153,0.895
	c0,0.273-0.048,0.565-0.144,0.876c-0.096,0.31-0.264,0.593-0.503,0.849c-0.239,0.256-0.563,0.471-0.971,0.644
	c-0.408,0.174-0.923,0.26-1.546,0.26h-1.977v-5.257h1.977C246.877,83.899,247.387,83.983,247.794,84.149z M254.706,87.645
	c0.318-0.254,0.673-0.451,1.064-0.593c0.391-0.141,0.814-0.212,1.271-0.212c0.445,0,0.863,0.071,1.254,0.212
	c0.391,0.143,0.742,0.339,1.055,0.593c0.313,0.255,0.58,0.556,0.803,0.903c0.222,0.348,0.381,0.723,0.478,1.124h-7.215
	c0.108-0.401,0.271-0.776,0.487-1.124C254.12,88.2,254.387,87.899,254.706,87.645z M286.623,87.979
	c0.336-0.344,0.73-0.616,1.183-0.818c0.45-0.202,0.946-0.303,1.487-0.303c0.529,0,1.021,0.101,1.471,0.303
	c0.451,0.202,0.842,0.475,1.172,0.818c0.331,0.346,0.589,0.749,0.775,1.213c0.187,0.463,0.279,0.957,0.279,1.479
	c0,0.523-0.093,1.016-0.279,1.479c-0.187,0.463-0.444,0.866-0.775,1.211s-0.721,0.617-1.172,0.819s-0.941,0.304-1.471,0.304
	c-0.541,0-1.037-0.102-1.487-0.304c-0.451-0.202-0.845-0.475-1.183-0.819c-0.336-0.345-0.598-0.749-0.784-1.211
	c-0.187-0.464-0.28-0.956-0.28-1.479c0-0.521,0.093-1.016,0.28-1.479C286.024,88.728,286.287,88.324,286.623,87.979z
	 M310.972,87.979c0.336-0.344,0.73-0.616,1.184-0.818c0.451-0.202,0.945-0.303,1.486-0.303c0.529,0,1.02,0.101,1.471,0.303
	s0.842,0.475,1.172,0.818c0.332,0.346,0.59,0.749,0.775,1.213c0.188,0.463,0.279,0.957,0.279,1.479c0,0.523-0.092,1.016-0.279,1.479
	c-0.186,0.463-0.443,0.866-0.775,1.211c-0.33,0.345-0.721,0.617-1.172,0.819s-0.941,0.304-1.471,0.304
	c-0.541,0-1.035-0.102-1.486-0.304s-0.846-0.475-1.184-0.819c-0.336-0.345-0.598-0.749-0.785-1.211
	c-0.186-0.464-0.277-0.956-0.277-1.479c0-0.521,0.092-1.016,0.277-1.479C310.375,88.728,310.636,88.324,310.972,87.979z
	 M338.001,87.645c0.318-0.254,0.674-0.451,1.064-0.593c0.391-0.141,0.814-0.212,1.271-0.212c0.445,0,0.863,0.071,1.254,0.212
	c0.391,0.143,0.742,0.339,1.055,0.593c0.313,0.255,0.58,0.556,0.803,0.903s0.381,0.723,0.479,1.124h-7.215
	c0.107-0.401,0.271-0.776,0.486-1.124C337.416,88.2,337.683,87.899,338.001,87.645z M365.996,87.962
	c0.332-0.345,0.725-0.618,1.182-0.82c0.457-0.201,0.951-0.303,1.48-0.303c0.541,0,1.037,0.102,1.486,0.303
	c0.451,0.202,0.844,0.476,1.174,0.82s0.588,0.749,0.775,1.211c0.186,0.463,0.279,0.957,0.279,1.479s-0.094,1.016-0.279,1.479
	c-0.188,0.463-0.445,0.867-0.775,1.212c-0.332,0.346-0.723,0.618-1.174,0.819c-0.449,0.202-0.945,0.303-1.486,0.303
	c-0.529,0-1.023-0.101-1.48-0.303s-0.85-0.476-1.182-0.819c-0.33-0.345-0.588-0.749-0.775-1.212s-0.279-0.956-0.279-1.479
	s0.094-1.017,0.279-1.479S365.666,88.307,365.996,87.962z M395.144,87.962c0.33-0.345,0.725-0.618,1.182-0.82
	c0.457-0.201,0.949-0.303,1.479-0.303c0.541,0,1.037,0.102,1.488,0.303c0.451,0.202,0.84,0.476,1.172,0.82
	c0.33,0.345,0.588,0.749,0.775,1.211c0.186,0.463,0.279,0.957,0.279,1.479s-0.094,1.016-0.279,1.479
	c-0.188,0.463-0.445,0.867-0.775,1.212c-0.332,0.346-0.721,0.618-1.172,0.819c-0.451,0.202-0.947,0.303-1.488,0.303
	c-0.529,0-1.021-0.101-1.479-0.303s-0.852-0.476-1.182-0.819c-0.33-0.345-0.59-0.749-0.775-1.212
	c-0.188-0.463-0.279-0.956-0.279-1.479s0.092-1.017,0.279-1.479C394.554,88.71,394.812,88.307,395.144,87.962z"/>
</svg>
